<svg id="Layer_1" data-name="Layer 1" xmlns="http://www.w3.org/2000/svg" viewBox="0 0 53.39 55.91"><defs><style>.cls-1{fill:#6b6b6c;}.cls-2{fill:#747677;}.cls-3{fill:#636566;}</style></defs><title>kfjskjdfs</title><path class="cls-1" d="M168.63,66.47a12.7,12.7,0,0,1-1.84,1.77c-4.4,3.42-10,3-13.28,2.69-.91-.08-1.92-.16-3-.31A13.79,13.79,0,0,0,157,67.46a14.46,14.46,0,0,0,2-2.17c8-10.17,15.2-19.37,13.85-28.75-.4-2.81-1.07-2.13-3-9.23-.42-1.54-.72-2.81-1-3.86,3.69,1.31,5.44,1.26,7.09,3.56,1.34,1.86.85,2.81,2.63,8.57s2.4,5.22,2.77,7.5C182.59,50.72,176,58.2,168.63,66.47Z" transform="translate(-128.12 -15.21)"/><path class="cls-2" d="M159,65.29a14.46,14.46,0,0,1-2,2.17,13.79,13.79,0,0,1-6.46,3.16,18.86,18.86,0,0,1-9.44-3.75c-1.83-1.43-3.07-3.36-5.48-7.16-5-7.88-7.51-11.82-7.48-16.34,0-2.55.66-1.64,2.31-10.32,1.08-5.66.87-6.37,1.86-8,1.65-2.69,4.47-3.94,10.05-6.33,5.81-2.49,8.71-3.74,11.17-3.48,4.47.47,4.38,3.2,11.8,6.74a34.6,34.6,0,0,0,3.56,1.47c.24,1.05.54,2.32,1,3.86,1.94,7.1,2.61,6.42,3,9.23C174.19,45.92,167,55.12,159,65.29Z" transform="translate(-128.12 -15.21)"/><path class="cls-3" d="M163,27.09c.24.77-1,1.53-2.4,2.36a1.6,1.6,0,0,1-.35.18,6.19,6.19,0,0,1-2.51.28,6.89,6.89,0,0,1-2.35-.41,4,4,0,0,1-1-.73c-.95-.79-1.42-1.19-1.42-1.65,0-.26.13-.17.44-1,.2-.57.16-.65.35-.81a4.78,4.78,0,0,1,1.9-.64,8.43,8.43,0,0,1,2.11-.35c.85,0,.83.32,2.23.68,1.19.3,1.62.21,2,.51s.17.28.5.86S163,26.86,163,27.09Z" transform="translate(-128.12 -15.21)"/><path class="cls-3" d="M137.82,46c.7-.75,2.16-.29,3.77.22a1.9,1.9,0,0,1,.37.15,4.45,4.45,0,0,1,1.61,1.82,5.13,5.13,0,0,1,.81,2.18,4.2,4.2,0,0,1-.22,1.35c-.34,1.34-.52,2-1,2.33-.27.18-.24,0-1.33.4-.72.25-.77.33-1,.3-.45-.05-.87-.39-1.68-1.06a6,6,0,0,1-1.48-1.45c-.4-.71-.1-.89-.46-2.28-.31-1.16-.63-1.44-.52-2,.06-.33.21-.33.65-1S137.62,46.21,137.82,46Z" transform="translate(-128.12 -15.21)"/><path class="cls-3" d="M171.22,48.36c-1.32,1.51-3.87,1.5-6.69,1.5a3.3,3.3,0,0,1-.64-.06,4.4,4.4,0,0,1-2.66-2.06,5.22,5.22,0,0,1-1.17-3,6.9,6.9,0,0,1,.55-2.24c.77-2.27,1.16-3.4,2.06-4.16.51-.42.43-.15,2.42-1.28,1.3-.75,1.41-.91,1.89-1,.8-.14,1.5.19,2.87.85s2.13,1,2.47,1.53c.62.93.06,1.37.54,3.37.41,1.69.95,2,.7,2.86-.16.57-.43.63-1.29,1.93S171.61,47.9,171.22,48.36Z" transform="translate(-128.12 -15.21)"/><path class="cls-3" d="M154.8,61.19c0-1,1-1.81,2-2.7a1.25,1.25,0,0,1,.26-.19,2.11,2.11,0,0,1,1.65,0,2.58,2.58,0,0,1,1.41.79,4,4,0,0,1,.51,1,4.65,4.65,0,0,1,.56,2.25c-.06.32-.12.19-.5,1.26-.24.7-.23.8-.39,1s-.61.41-1.33.59a3,3,0,0,1-1.42.2c-.52-.15-.46-.5-1.27-1.11s-1-.46-1.18-.88c-.12-.26,0-.37-.14-1.15S154.79,61.49,154.8,61.19Z" transform="translate(-128.12 -15.21)"/></svg>