<svg xmlns="http://www.w3.org/2000/svg" viewBox="0 0 53.26 51.76"><defs><style>.cls-1{fill:#7e7f7f;}.cls-2{fill:#87898a;}.cls-3{fill:#77797a;}</style></defs><title>Asset 4</title><g id="Layer_2" data-name="Layer 2"><g id="Layer_1-2" data-name="Layer 1"><path class="cls-1" d="M51.55,35.7a11.41,11.41,0,0,1-4,8.58c-2.1,1.77-3.66,1.57-7,4.46-1.27,1.11-1.16,1.25-1.84,1.77-2.83,2.21-6.3,1-11.23.22l.43-.38a.73.73,0,0,1,.09-.08c3.79-3.21,5.3-2.75,7.69-4.72a16.53,16.53,0,0,0,5.51-10.36c.39-3.67-1.06-5,.06-7.39s3.18-3,3.45-5.54c0-.33,0-.35-.07-1.47-.15-3.68,0-5.15-.13-6.9a24.78,24.78,0,0,0-1-5.46c-.06-.21-.11-.41-.17-.6,4.56,3.72,5.76,4.87,6.88,7a16.74,16.74,0,0,1,1.7,4.11c.33,1.34.41,2.48,1.06,5.31a7.44,7.44,0,0,1,.26,1.12c.1,2-1.92,2.77-2.65,4.64S51.43,32.83,51.55,35.7Z"/><path class="cls-2" d="M41.23,27.8c-1.12,2.41.33,3.72-.06,7.39a16.53,16.53,0,0,1-5.51,10.36c-2.39,2-3.9,1.51-7.69,4.72a.73.73,0,0,0-.09.08l-.43.38c-.74-.1-1.86-.23-3.22-.37-5.26-.53-6.16-.27-8.94-.64-3.13-.42-6-.81-8.85-2.9a9.79,9.79,0,0,1-3.83-5c-.51-1.71.05-2-.08-4.45C2.27,32.43-.2,30.8,0,25.64c0-.54.07-1,.1-1.25A33.4,33.4,0,0,1,1.17,17c.83-3.16,2-7.6,5.3-11.06C10,2.25,15.15,1.56,25.44.18a19.21,19.21,0,0,1,9.09.92c1.12.46,1.53.79,6.23,4.62l2.59,2.11c.06.19.11.39.17.6a24.78,24.78,0,0,1,1,5.46c.1,1.75,0,3.22.13,6.9,0,1.12.09,1.14.07,1.47C44.41,24.84,42.28,25.52,41.23,27.8Z"/><path class="cls-3" d="M36,38.07c.78.64.4,2.12,0,3.76a2.87,2.87,0,0,1-.13.38,4.49,4.49,0,0,1-1.72,1.72,5.08,5.08,0,0,1-2.12.93,3.8,3.8,0,0,1-1.37-.13c-1.34-.26-2-.39-2.37-.85-.2-.26,0-.24-.48-1.3-.28-.69-.37-.74-.36-1,0-.45.34-.88,1-1.73a6,6,0,0,1,1.35-1.57c.68-.44.88-.15,2.24-.6,1.15-.37,1.41-.71,2-.64.34,0,.34.19,1,.59S35.77,37.88,36,38.07Z"/><path class="cls-3" d="M35.8,17c-.53,1-2.37.87-4.39.7a2.63,2.63,0,0,1-.48-.07A5.94,5.94,0,0,1,28.44,16a6.81,6.81,0,0,1-1.68-2.27,4.63,4.63,0,0,1-.22-1.6c-.08-1.6-.11-2.41.33-2.9.25-.28.27-.08,1.39-.8.72-.46.76-.57,1.08-.6a5,5,0,0,1,2.3.77,8.38,8.38,0,0,1,2.2,1.26c.7.71.42,1,1.32,2.48.76,1.26,1.23,1.49,1.3,2.12,0,.4-.13.44-.4,1.33S36,16.73,35.8,17Z"/><path class="cls-3" d="M40.9,23.06h-.14l-.64,0a2.25,2.25,0,0,0-.52.07c-.32.07-.48.18-1.27.72-.55.38-.6.41-.67.52a1.83,1.83,0,0,0-.31.89c-.26,1.39-.28,1.42-.22,1.55a1.07,1.07,0,0,0,.59.5c.72.27,1.73-.38,2.43.12.37.26.31.6.89,1a1.37,1.37,0,0,0,.71.27A1.4,1.4,0,0,0,43,28.06a.79.79,0,0,0,.13-.29,6.41,6.41,0,0,1,.11-1.17c.2-.66.57-1,.33-1.45-.05-.08-.07-.07-.17-.23a7.9,7.9,0,0,1-.37-.81,1.47,1.47,0,0,0-.92-.62c-.34-.06-.47.08-.69,0S41.14,23.1,40.9,23.06Z"/><path class="cls-3" d="M17.43,35.08c.41-.17.93.07,1.18-.27,0-.05,0-.05.1-.23.26-.56.4-.76.51-1a3.26,3.26,0,0,0,.22-1A5.85,5.85,0,0,0,19,30.25l-.24-.79a7.67,7.67,0,0,0-.66-1.85,6.82,6.82,0,0,0-1.75-1.76c-2.31-1.6-3.47-2.4-4.71-2.44A4.66,4.66,0,0,0,9,24.24a5.56,5.56,0,0,0-1.23,1,1.59,1.59,0,0,0-.2.19c-.75.78-.46,1.48-1.09,2.33-.31.41-.47.36-.59.72A2.21,2.21,0,0,0,6,29.94a5.72,5.72,0,0,0,1.43,2c.52.55.74.66,1.76,1.68l.61.63c.92,1,1.46,1.81,2.35,2,.21,0,.21,0,.62,0,1.09.13,1.38.44,2.06.53a2.24,2.24,0,0,0,2-.66C17.21,35.68,17,35.26,17.43,35.08Z"/></g></g></svg>