<svg id="Layer_1" data-name="Layer 1" xmlns="http://www.w3.org/2000/svg" viewBox="0 0 52.01 110"><defs><style>.cls-1{fill:#fcb854;}.cls-2{fill:#d89b47;}.cls-3{fill:#ab413d;}.cls-4{fill:#e1564c;}.cls-5{fill:#ece8e4;}.cls-6{fill:#cac6c3;}.cls-7{fill:#bf4a41;}.cls-8{fill:#7dafdf;}.cls-9{fill:#535556;}.cls-10{fill:#6994be;}</style></defs><title>rocketShip</title><path class="cls-1" d="M39.35,96.66a12.26,12.26,0,0,1-2.7,7.77A14.82,14.82,0,0,1,35,106.27a14.32,14.32,0,0,1-1.82,1.44A15.51,15.51,0,0,1,27.75,110a7.75,7.75,0,0,0,2-3.26s0,0,0-.06a5.49,5.49,0,0,0,.22-1.14c.1-1,.06-2.63-.53-2.81-.27-.08-.55.17-1,.64h0c-.19.19-.41.44-.67.71s-.27.3-.42.45A21.38,21.38,0,0,1,24.53,107a7.58,7.58,0,0,0,.18-3c-.34-2.35-1.7-3.25-2.56-5.35a10,10,0,0,1-.48-5.92c.83-3.5,4.25-7.13,8.23-7.24A7,7,0,0,1,34,86.75a10.43,10.43,0,0,1,1.48,1.19A13.49,13.49,0,0,1,39.35,96.66Z" transform="translate(-4.5)"/><path class="cls-2" d="M39.35,96.66a12.26,12.26,0,0,1-2.7,7.77,13.72,13.72,0,0,1-3.45,3.28A15.51,15.51,0,0,1,27.75,110a7.75,7.75,0,0,0,2-3.26,7.09,7.09,0,0,0,.23-1.2,8,8,0,0,0,0-1.69A13.33,13.33,0,0,0,31.61,102a12.35,12.35,0,0,0,2.71-7.78,13.54,13.54,0,0,0-3.91-8.71A7.1,7.1,0,0,1,34,86.75,13.1,13.1,0,0,1,39.35,96.66Z" transform="translate(-4.5)"/><path class="cls-3" d="M56.5,69.57c0,.45,0,11.29,0,26.47,0,.28-.11.48-.24.53a.43.43,0,0,1-.17,0,.26.26,0,0,1-.15-.07L41,82.16C45.2,78,47.66,71.52,49.1,65h0a17.55,17.55,0,0,0,.5-2.37.88.88,0,0,1,0-.16s0-.06,0-.08l0-.31h0c2.15,2.18,4.31,4.34,6.46,6.52a1.05,1.05,0,0,1,.28.4A1.24,1.24,0,0,1,56.5,69.57Z" transform="translate(-4.5)"/><path class="cls-4" d="M20.09,82.36l-15,14.46a.35.35,0,0,1-.15.07.33.33,0,0,1-.17,0,.59.59,0,0,1-.25-.53c0-15.18,0-26,0-26.47a1.28,1.28,0,0,1,.08-.6,1.17,1.17,0,0,1,.29-.4l6.46-6.52C11.68,65.15,12.47,69.08,20.09,82.36Z" transform="translate(-4.5)"/><path class="cls-5" d="M28.29,28.15c.17,0,.34-.07.51-.09l.39,0a8.06,8.06,0,0,1,1.2-.08V15.15h-.91a36.8,36.8,0,0,1-12.41-2.36c-.74,1.1-1.46,2.27-2.14,3.51-5.42,10-5.37,19.09-5.22,27.55a115.65,115.65,0,0,0,1.63,18.51c.21,1.19.46,2.38.76,3.57h0a.08.08,0,0,0,0,0c1.49,6.32,3.95,12.47,8,16.38a14.54,14.54,0,0,0,2.75,2.16h5.78c-.41-5.66-.85-13.47-1.3-23.8a2.26,2.26,0,0,1,2.25-2.25h.82V48.91a8.06,8.06,0,0,1-1.2-.08l-.39,0a4.59,4.59,0,0,1-.51-.1,9.48,9.48,0,0,1-2-.61,8.22,8.22,0,0,1-.9-.43l-.08,0a3.85,3.85,0,0,1-.38-.23l-.43-.27a7.64,7.64,0,0,1-.66-.5,10.49,10.49,0,0,1,4.41-18.45Zm21.38,33.9,0,.31c0-.1,0-.2,0-.3Z" transform="translate(-4.5)"/><path class="cls-6" d="M49.1,65C47.66,71.52,45.2,78,41,82.16c0,0-.08-.07-.11-.11C46.33,72.64,48.29,67.93,49.1,65Z" transform="translate(-4.5)"/><path class="cls-6" d="M49.68,62.06h0l0,.31s0,.06,0,.08a.88.88,0,0,0,0,.16c-.15.79-.32,1.58-.5,2.37h0c-.81,3-2.77,7.66-8.17,17.07,0,0,.08.07.11.11a16.3,16.3,0,0,1-3,2.36h-6c.39-5.66.78-13.46,1.19-23.8a2.24,2.24,0,0,0-2.24-2.25h-.67V48.91h0a10.49,10.49,0,1,0,0-21h0V15.15a36.08,36.08,0,0,0,12.69-2.41,43.29,43.29,0,0,1,2.4,3.84c5.53,10,5.68,19.08,5.72,26.69A106.24,106.24,0,0,1,49.68,62.06Z" transform="translate(-4.5)"/><path class="cls-7" d="M43.08,12.74a36.08,36.08,0,0,1-12.69,2.41V0A61.89,61.89,0,0,1,36,4.76,61,61,0,0,1,43.08,12.74Z" transform="translate(-4.5)"/><path class="cls-4" d="M30.39,0V15.15h-.91a36.8,36.8,0,0,1-12.41-2.36h0A41,41,0,0,1,30.39,0Z" transform="translate(-4.5)"/><path class="cls-8" d="M30.39,47.91a7.17,7.17,0,0,1-1.06-.07l-.35,0-.48-.09a8.44,8.44,0,0,1-1.77-.56,8.32,8.32,0,0,1-.84-.39l-.1-.06-.28-.17c-.16-.09-.29-.18-.41-.26s-.39-.28-.58-.43a9.49,9.49,0,0,1,4-16.71l.45-.08a2.55,2.55,0,0,1,.34,0,7,7,0,0,1,1.11-.08,9.49,9.49,0,1,1,0,19Z" transform="translate(-4.5)"/><path class="cls-9" d="M30.43,29.93a8.49,8.49,0,1,1,0,17,6.42,6.42,0,0,1-.91-.06h-.11l-.21,0h-.08l-.42-.08a7.74,7.74,0,0,1-1.54-.48l0,0,0,0a6.12,6.12,0,0,1-.66-.31l-.08,0,0,0L26,45.69l0,0,0,0-.31-.19c-.19-.13-.36-.26-.54-.41A8.41,8.41,0,0,1,22,38.43a8.5,8.5,0,0,1,6.76-8.32l.37-.07h.08l.21,0h.11a6.42,6.42,0,0,1,.91-.06h0m0-2h0a8.06,8.06,0,0,0-1.2.08l-.39,0c-.17,0-.34.06-.51.09A10.49,10.49,0,0,0,23.88,46.6a7.64,7.64,0,0,0,.66.5l.43.27a3.85,3.85,0,0,0,.38.23l.08,0a8.22,8.22,0,0,0,.9.43,9.48,9.48,0,0,0,2,.61,4.59,4.59,0,0,0,.51.1l.39,0a8.06,8.06,0,0,0,1.2.08h0a10.49,10.49,0,1,0,0-21Z" transform="translate(-4.5)"/><path class="cls-9" d="M40.93,85.83v2.72a1.32,1.32,0,0,1-1.32,1.31H31.69c.1-1,.19-2.1.28-3.34,0-.63.09-1.3.14-2h7.5A1.32,1.32,0,0,1,40.93,85.83Z" transform="translate(-4.5)"/><path class="cls-9" d="M30.39,84.52v5.34H21.26A1.31,1.31,0,0,1,20,88.55V85.83a1.31,1.31,0,0,1,1.31-1.31Z" transform="translate(-4.5)"/><path class="cls-7" d="M32.11,84.52c0,.7-.1,1.37-.14,2-.09,1.24-.18,2.35-.28,3.34h-1.3V84.52Z" transform="translate(-4.5)"/><path class="cls-7" d="M33.3,60.72c-.41,10.34-.8,18.14-1.19,23.8H30.39v-26h.67A2.24,2.24,0,0,1,33.3,60.72Z" transform="translate(-4.5)"/><path class="cls-7" d="M31.69,89.86c-.44,4.92-.88,7.06-1.3,7.06V89.86Z" transform="translate(-4.5)"/><path class="cls-4" d="M30.39,58.47V96.92c-.41,0-.86-2.14-1.33-7.06-.1-1-.19-2.1-.3-3.34,0-.63-.09-1.3-.14-2-.41-5.66-.85-13.47-1.3-23.8a2.26,2.26,0,0,1,2.25-2.25Z" transform="translate(-4.5)"/><path class="cls-10" d="M38.54,38.42a8.07,8.07,0,0,1-8.08,8.07h0V30.35h0A8.07,8.07,0,0,1,38.54,38.42Z" transform="translate(-4.5)"/></svg>